<?xml version="1.0" standalone="no"?>
<!DOCTYPE svg PUBLIC "-//W3C//DTD SVG 20010904//EN"
 "http://www.w3.org/TR/2001/REC-SVG-20010904/DTD/svg10.dtd">
<svg version="1.0" xmlns="http://www.w3.org/2000/svg"
 width="2439.000000pt" height="2439.000000pt" viewBox="0 0 2439.000000 2439.000000"
 preserveAspectRatio="xMidYMid meet">
<metadata>
Created by potrace 1.11, written by Peter Selinger 2001-2013
</metadata>
<g transform="translate(0.000000,2439.000000) scale(0.100000,-0.100000)"
fill="#000000" stroke="none">
<path d="M11635 23662 c-3 -3 -45 -7 -93 -9 -149 -5 -372 -22 -507 -38 -22 -3
-65 -7 -95 -10 -90 -9 -171 -19 -315 -40 -34 -5 -84 -12 -135 -19 -19 -3 -51
-8 -70 -11 -19 -4 -51 -8 -70 -10 -19 -2 -46 -7 -60 -10 -14 -3 -41 -8 -60
-11 -19 -2 -46 -7 -60 -10 -14 -3 -38 -7 -55 -10 -16 -3 -41 -7 -55 -10 -14
-3 -38 -8 -55 -11 -46 -8 -60 -11 -60 -13 0 -1 -12 -3 -27 -5 -16 -2 -37 -6
-47 -10 -22 -7 -55 -14 -91 -20 -14 -2 -36 -7 -50 -11 -14 -3 -33 -6 -42 -6
-10 1 -20 -3 -23 -8 -3 -5 -12 -7 -19 -4 -8 3 -17 0 -21 -5 -3 -6 -11 -9 -16
-6 -5 4 -15 3 -21 -2 -7 -4 -22 -8 -33 -9 -23 -3 -42 -7 -105 -24 -25 -7 -52
-14 -60 -15 -8 -2 -15 -4 -15 -5 0 -1 -11 -3 -25 -6 -14 -2 -32 -7 -40 -11 -8
-3 -20 -5 -27 -4 -6 1 -14 -3 -18 -8 -3 -6 -12 -8 -19 -5 -8 3 -17 0 -21 -5
-3 -6 -10 -9 -15 -6 -4 3 -24 -2 -44 -10 -20 -8 -36 -13 -36 -11 0 3 -26 -4
-57 -15 -32 -11 -71 -22 -87 -25 -17 -3 -35 -9 -42 -14 -6 -6 -14 -7 -17 -3
-4 3 -13 0 -22 -7 -8 -7 -15 -9 -15 -6 0 4 -9 2 -21 -4 -19 -11 -31 -14 -88
-26 -14 -3 -29 -8 -35 -12 -6 -3 -17 -7 -24 -8 -8 -2 -21 -6 -30 -10 -9 -4
-20 -8 -24 -9 -5 -2 -9 -3 -10 -5 -2 -1 -11 -3 -20 -5 -15 -3 -65 -19 -128
-43 -8 -3 -18 -6 -22 -7 -5 -2 -9 -3 -10 -4 -2 -2 -13 -4 -26 -7 -12 -2 -39
-11 -60 -21 -20 -9 -40 -17 -44 -18 -5 -2 -10 -4 -13 -5 -3 -1 -9 -4 -15 -5
-5 -1 -12 -4 -15 -5 -3 -1 -8 -3 -12 -4 -8 -2 -115 -41 -143 -53 -8 -3 -20 -7
-27 -9 -7 -1 -27 -10 -45 -19 -18 -9 -40 -18 -49 -20 -8 -2 -32 -10 -52 -19
-21 -8 -40 -15 -43 -15 -3 0 -16 -7 -30 -15 -13 -9 -24 -14 -24 -11 0 3 -10 0
-22 -7 -13 -6 -27 -13 -33 -14 -14 -3 -205 -85 -310 -133 -22 -11 -80 -38
-130 -60 -119 -56 -429 -209 -535 -267 -230 -123 -319 -173 -352 -196 -14 -10
-28 -18 -31 -18 -3 0 -43 -23 -89 -51 -46 -27 -90 -54 -98 -59 -599 -362
-1162 -779 -1717 -1273 -208 -185 -771 -750 -945 -949 -252 -287 -489 -583
-705 -879 -134 -184 -442 -647 -499 -749 -10 -19 -31 -52 -46 -74 -16 -21 -28
-44 -28 -49 0 -6 -6 -18 -14 -26 -14 -16 -66 -105 -88 -151 -6 -14 -17 -32
-24 -40 -6 -8 -33 -55 -60 -105 -26 -49 -65 -121 -86 -160 -62 -117 -221 -430
-220 -435 0 -3 -23 -54 -52 -115 -30 -60 -61 -128 -71 -150 -9 -22 -23 -52
-31 -67 -9 -16 -12 -28 -9 -28 4 0 -3 -16 -15 -35 -12 -19 -19 -35 -16 -35 3
0 -2 -15 -12 -32 -16 -29 -55 -124 -57 -138 0 -3 -6 -14 -11 -25 -10 -17 -66
-160 -70 -175 -1 -5 -12 -35 -37 -95 -6 -16 -12 -32 -13 -35 0 -3 -4 -12 -7
-20 -11 -27 -79 -215 -81 -225 -1 -5 -4 -14 -7 -20 -4 -5 -10 -23 -14 -40 -10
-36 -10 -36 -19 -57 -4 -9 -9 -22 -10 -30 -2 -7 -6 -20 -9 -28 -10 -24 -38
-111 -42 -129 -2 -9 -8 -28 -14 -43 -6 -16 -8 -28 -5 -28 4 0 2 -6 -3 -12 -6
-7 -14 -26 -18 -43 -5 -16 -10 -34 -11 -40 -2 -5 -5 -19 -8 -30 -2 -11 -5 -20
-6 -20 -1 0 -3 -7 -5 -15 -3 -8 -6 -22 -8 -30 -2 -8 -8 -23 -12 -33 -4 -10 -9
-26 -9 -35 -1 -10 -10 -42 -19 -73 -10 -31 -20 -67 -22 -79 -2 -13 -9 -37 -15
-55 -11 -34 -20 -67 -25 -100 -2 -11 -8 -32 -14 -47 -6 -16 -9 -28 -6 -28 2 0
-2 -17 -8 -37 -7 -21 -13 -45 -12 -53 1 -8 -1 -19 -4 -25 -6 -11 -10 -27 -16
-60 -2 -11 -4 -20 -5 -20 -2 0 -4 -9 -6 -20 -1 -11 -5 -31 -9 -45 -3 -14 -8
-35 -11 -47 -13 -70 -20 -102 -30 -143 -3 -14 -7 -35 -10 -47 -2 -13 -6 -34
-9 -48 -3 -14 -7 -35 -9 -47 -2 -13 -7 -39 -11 -58 -7 -36 -15 -87 -20 -130
-1 -14 -4 -25 -5 -25 -3 0 -8 -32 -14 -85 -2 -19 -5 -35 -6 -35 -1 0 -3 -13
-4 -30 -3 -33 -17 -135 -31 -225 -2 -14 -7 -47 -10 -75 -3 -27 -8 -61 -10 -75
-3 -14 -7 -52 -10 -85 -3 -33 -8 -71 -10 -85 -2 -14 -7 -59 -10 -100 -3 -41
-8 -89 -10 -107 -2 -17 -7 -71 -10 -120 -4 -48 -8 -106 -10 -128 -21 -223 -28
-1166 -11 -1445 13 -215 23 -347 31 -430 2 -19 6 -64 10 -100 3 -36 7 -74 9
-85 2 -11 7 -51 10 -90 4 -38 9 -83 11 -100 8 -52 15 -105 20 -153 3 -26 8
-54 10 -62 2 -8 7 -40 11 -70 3 -30 8 -66 10 -80 2 -14 5 -41 8 -60 3 -19 7
-48 11 -65 7 -35 15 -80 20 -115 14 -92 22 -141 39 -222 3 -16 8 -38 10 -50 3
-13 8 -34 11 -48 4 -14 8 -35 11 -47 2 -13 6 -33 8 -45 3 -13 7 -34 11 -48 3
-14 9 -38 12 -55 3 -16 9 -37 14 -46 4 -9 6 -19 3 -22 -3 -3 -2 -12 2 -19 5
-7 9 -22 10 -33 1 -11 5 -31 9 -45 3 -14 8 -36 11 -50 2 -14 7 -32 11 -40 3
-8 7 -22 9 -30 5 -25 26 -104 31 -120 4 -8 8 -22 10 -30 2 -8 5 -22 8 -30 2
-8 4 -15 5 -15 1 0 3 -11 6 -24 2 -14 9 -30 14 -36 5 -7 7 -14 5 -17 -3 -3 0
-18 6 -34 7 -16 13 -32 14 -36 2 -5 4 -10 5 -13 1 -3 4 -9 5 -15 1 -5 4 -12 5
-15 1 -3 4 -9 5 -15 1 -5 4 -12 5 -15 1 -3 4 -9 5 -15 1 -5 4 -12 5 -15 1 -3
4 -9 5 -15 1 -5 4 -12 5 -15 1 -3 3 -8 5 -12 1 -5 5 -16 8 -25 4 -10 10 -26
14 -35 3 -10 7 -21 8 -25 2 -5 4 -10 5 -13 1 -3 3 -8 4 -12 6 -26 28 -50 45
-48 11 1 31 17 44 36 13 19 120 176 237 349 246 362 535 770 767 1080 147 197
507 665 539 700 7 8 79 96 159 195 81 99 166 203 190 230 23 28 98 114 165
193 67 78 126 142 131 142 5 0 9 5 9 11 0 18 269 313 605 662 172 179 539 534
705 682 36 31 81 72 100 89 99 91 464 396 473 396 3 0 20 14 38 31 63 59 453
346 654 481 187 127 470 308 480 308 3 0 33 17 67 38 140 85 688 377 688 366
0 -3 21 6 48 19 96 51 283 133 437 192 39 15 76 32 83 37 6 6 12 8 12 5 0 -3
32 7 71 24 40 16 75 29 79 29 4 0 25 8 46 17 22 9 44 18 50 19 25 4 170 57
180 65 6 5 14 6 17 2 4 -3 12 -1 19 5 7 6 16 10 21 11 8 0 140 39 167 49 8 3
18 6 23 7 4 2 8 3 10 5 3 2 23 7 61 15 16 3 37 10 48 16 10 5 18 7 18 4 0 -3
8 -1 18 4 11 6 32 13 48 16 47 10 48 10 62 18 6 5 12 6 12 2 0 -3 15 1 34 9
19 8 36 12 39 10 3 -3 21 1 40 10 19 8 38 12 41 9 3 -3 12 -1 19 5 8 7 17 9
20 6 3 -3 12 -2 19 2 7 4 19 9 28 10 8 1 26 4 40 7 14 3 35 8 48 11 13 3 31 7
40 10 9 3 32 8 51 11 19 3 38 8 43 11 5 3 25 8 46 10 20 3 46 8 57 11 11 4 31
8 45 10 36 4 65 10 65 13 0 1 9 3 20 4 17 2 89 16 105 21 33 9 130 27 158 30
20 2 37 4 37 5 0 1 14 3 30 5 17 1 46 5 65 9 19 4 51 9 70 12 19 3 49 7 65 9
101 17 165 25 202 28 17 1 34 5 37 8 4 4 21 5 38 3 17 -2 36 0 42 5 6 4 27 7
46 6 19 -1 40 0 45 4 6 3 33 7 60 8 89 6 140 10 140 13 0 1 27 4 60 6 33 2 92
6 130 9 94 7 229 14 350 19 55 2 100 5 100 6 0 2 376 9 525 9 80 0 464 -6 695
-12 129 -4 310 -13 430 -22 28 -2 95 -6 150 -10 55 -3 116 -8 135 -10 19 -3
69 -7 110 -11 146 -11 243 -20 330 -30 25 -2 65 -7 90 -9 67 -7 140 -15 180
-19 19 -3 60 -7 90 -11 30 -3 71 -8 90 -10 19 -3 55 -7 80 -10 25 -3 61 -8 80
-10 19 -2 57 -7 84 -11 27 -3 57 -7 66 -9 9 -2 41 -6 71 -10 30 -3 65 -8 79
-10 14 -2 43 -6 65 -10 23 -3 50 -7 61 -9 12 -2 45 -7 75 -11 30 -3 61 -8 69
-10 8 -2 35 -7 60 -10 25 -3 52 -8 60 -10 8 -2 35 -7 60 -10 63 -8 160 -24
190 -30 14 -3 41 -8 60 -11 19 -3 94 -16 165 -29 72 -13 144 -26 160 -29 17
-3 41 -8 55 -11 14 -3 39 -7 55 -10 28 -5 52 -10 100 -19 215 -45 280 -58 335
-71 55 -13 100 -17 101 -9 0 5 2 18 4 29 1 11 6 61 10 110 3 50 8 106 10 125
26 287 26 981 0 1290 -8 96 -17 196 -20 220 -1 14 -5 52 -9 85 -3 33 -8 71
-11 85 -2 14 -7 45 -10 70 -13 117 -16 138 -25 180 -5 25 -11 64 -14 87 -3 22
-7 52 -10 65 -3 12 -8 39 -11 58 -2 19 -7 46 -10 60 -3 14 -8 41 -11 60 -3 19
-9 53 -14 75 -5 22 -11 54 -14 70 -3 17 -13 62 -21 100 -19 88 -56 255 -60
275 -2 8 -8 33 -13 55 -6 22 -13 51 -16 65 -6 28 -4 21 -46 195 -18 72 -33
137 -35 145 -12 52 -133 518 -160 615 -10 33 -21 74 -25 90 -7 26 -29 106 -71
253 -5 17 -13 47 -18 65 -6 17 -15 50 -21 72 -6 22 -15 54 -20 70 -26 88 -50
167 -70 230 -12 39 -30 97 -40 130 -47 161 -203 626 -288 860 -16 44 -41 114
-56 155 -15 41 -31 84 -36 95 -5 11 -47 119 -95 240 -47 121 -90 229 -95 240
-5 11 -23 54 -40 95 -17 41 -38 89 -45 105 -7 17 -31 71 -53 120 -70 158 -92
205 -203 430 -59 121 -135 267 -167 325 -32 58 -70 126 -85 151 -115 207 -365
580 -385 577 -4 0 -9 1 -12 2 -3 2 -18 4 -35 6 -16 2 -46 6 -65 9 -19 3 -53 7
-75 10 -22 3 -56 8 -75 11 -19 2 -53 6 -75 8 -22 2 -40 5 -40 6 0 2 -22 5
-130 14 -27 2 -50 5 -50 6 0 2 -22 4 -50 5 -27 2 -50 4 -50 5 0 3 -61 8 -155
14 -36 2 -65 5 -65 6 0 1 -34 4 -75 6 -41 2 -109 7 -150 9 -105 8 -1288 14
-1295 7z"/>
<path d="M14864 23355 c-10 -26 0 -52 111 -285 867 -1819 1466 -3520 1754
-4980 371 -1882 276 -3439 -311 -5070 -145 -402 -320 -816 -493 -1160 -661
-1320 -1805 -2877 -3179 -4328 -130 -138 -222 -243 -224 -256 -2 -19 18 -38
120 -111 747 -533 1682 -1057 2403 -1346 318 -127 535 -194 1030 -318 1380
-345 2528 -541 3710 -632 211 -16 1034 -23 1200 -10 l140 10 38 42 c125 140
443 570 656 889 930 1395 1546 2984 1790 4620 18 119 23 160 36 270 1 14 5 48
9 75 17 142 34 303 41 400 2 22 6 81 10 130 34 427 39 1222 10 1610 -2 28 -7
95 -11 150 -10 144 -18 237 -29 340 -15 141 -23 210 -30 255 -2 14 -7 52 -10
85 -20 198 -97 636 -170 966 -426 1914 -1338 3681 -2665 5164 -184 206 -669
691 -875 875 -1172 1049 -2523 1840 -3990 2336 -253 86 -501 160 -780 233
-242 64 -282 71 -291 46z"/>
<path d="M7484 14176 c-252 -126 -537 -287 -754 -426 -78 -49 -146 -90 -150
-90 -5 0 -10 -4 -12 -8 -2 -7 -132 -98 -195 -137 -9 -5 -24 -16 -32 -22 -20
-16 -198 -147 -230 -171 -14 -9 -43 -32 -65 -50 -48 -39 -53 -43 -131 -105
-33 -26 -67 -53 -75 -60 -32 -27 -139 -114 -174 -142 -21 -16 -61 -51 -90 -77
-28 -26 -57 -48 -63 -48 -7 0 -13 -4 -13 -9 0 -4 -32 -35 -71 -67 -39 -33 -83
-70 -99 -84 -85 -77 -165 -147 -190 -168 -27 -23 -54 -47 -167 -153 -28 -27
-53 -49 -56 -49 -14 0 -462 -450 -559 -561 -13 -15 -55 -62 -94 -105 -39 -44
-95 -106 -124 -139 -29 -33 -61 -69 -71 -80 -33 -37 -53 -60 -128 -148 -40
-48 -77 -87 -82 -87 -5 0 -9 -5 -9 -11 0 -7 -17 -31 -37 -53 -21 -23 -56 -64
-78 -90 -22 -27 -53 -65 -70 -85 -16 -20 -32 -38 -35 -41 -3 -3 -23 -27 -44
-55 -22 -27 -44 -54 -50 -60 -6 -5 -27 -30 -46 -55 -19 -25 -40 -52 -47 -60
-7 -8 -47 -58 -88 -110 -41 -52 -86 -108 -100 -124 -14 -16 -25 -31 -25 -34 0
-8 -82 -106 -92 -110 -5 -2 -8 -9 -8 -15 0 -7 -10 -23 -22 -37 -13 -14 -36
-43 -53 -65 -16 -22 -33 -44 -37 -50 -5 -5 -40 -53 -79 -105 -38 -52 -74 -96
-79 -98 -6 -2 -10 -10 -10 -18 0 -8 -7 -17 -15 -20 -8 -4 -15 -11 -15 -16 0
-12 -130 -191 -142 -196 -4 -2 -8 -8 -8 -12 0 -5 -51 -81 -113 -168 -63 -88
-124 -176 -136 -196 -13 -20 -27 -36 -32 -36 -5 0 -9 -5 -9 -11 0 -12 -60
-103 -72 -107 -4 -2 -8 -8 -8 -13 0 -10 -138 -220 -150 -229 -4 -3 -9 -10 -11
-16 -2 -6 -47 -77 -99 -158 -52 -80 -99 -154 -105 -164 -34 -61 -110 -178
-117 -180 -4 -2 -8 -8 -8 -14 0 -6 -22 -47 -49 -92 -123 -205 -203 -354 -206
-383 -3 -30 14 -95 28 -109 4 -4 7 -13 7 -20 0 -8 12 -39 27 -71 15 -32 28
-62 29 -68 1 -5 21 -53 44 -105 166 -378 381 -797 600 -1170 57 -96 110 -188
119 -204 9 -17 24 -39 34 -50 9 -11 17 -23 17 -28 0 -4 13 -27 29 -50 16 -24
83 -124 148 -223 98 -148 256 -376 291 -420 52 -67 102 -137 102 -144 0 -5 4
-11 9 -13 12 -4 91 -105 91 -117 0 -5 4 -11 9 -13 5 -1 50 -55 100 -118 50
-63 110 -137 134 -164 23 -27 46 -56 51 -65 5 -9 15 -20 22 -26 6 -5 33 -35
59 -65 46 -54 89 -103 169 -190 23 -25 79 -87 126 -139 129 -142 565 -572 716
-706 37 -33 72 -65 78 -70 6 -6 60 -53 121 -105 60 -52 115 -99 121 -105 6 -5
53 -44 105 -85 51 -41 104 -85 116 -97 13 -13 26 -23 29 -23 5 0 92 -68 104
-81 3 -3 26 -20 53 -39 26 -18 47 -37 47 -42 0 -4 5 -8 10 -8 6 0 46 -27 89
-60 120 -91 153 -114 461 -320 157 -105 290 -194 296 -198 5 -4 19 -12 30 -18
61 -34 373 -219 396 -235 15 -11 29 -19 32 -19 2 0 80 -41 173 -91 835 -452
1746 -804 2678 -1034 121 -30 236 -57 255 -59 19 -3 35 -5 35 -6 0 -1 7 -3 15
-5 25 -5 68 -14 210 -44 121 -26 389 -73 480 -85 19 -3 96 -14 170 -25 140
-21 504 -62 517 -59 5 1 28 -2 53 -6 25 -4 92 -9 150 -12 58 -3 141 -7 185
-10 114 -8 1318 -13 1330 -6 5 3 43 7 85 8 159 5 326 15 339 20 8 2 55 7 105
10 50 3 94 8 98 10 4 3 38 7 75 9 37 3 133 14 213 25 80 11 161 23 180 25 322
44 879 158 1246 256 764 204 1544 499 2194 829 85 44 193 99 240 122 47 24 87
46 90 49 4 4 107 62 212 119 24 13 330 195 392 233 136 84 576 382 646 437 14
11 30 20 37 20 6 0 13 4 15 9 2 5 73 62 158 127 179 136 344 266 413 327 27
23 53 44 59 46 5 2 24 17 42 35 18 17 48 44 67 60 18 16 57 49 84 74 28 25 73
65 100 89 97 86 192 178 428 411 194 193 237 241 237 263 0 18 -6 30 -17 33
-10 3 -130 15 -268 26 -446 38 -1023 99 -1370 145 -412 55 -520 71 -824 121
-90 14 -180 28 -200 29 -20 2 -36 4 -36 5 0 1 -11 3 -25 5 -14 2 -34 5 -45 8
-11 2 -42 8 -70 11 -138 20 -817 161 -1062 220 -56 14 -112 27 -125 30 -53 10
-438 112 -643 171 -593 170 -1146 368 -1650 590 -211 92 -564 263 -707 341
-75 42 -342 192 -378 214 -127 77 -397 248 -470 298 -92 64 -440 320 -450 331
-3 4 -30 25 -60 48 -30 23 -68 53 -85 67 -16 14 -45 38 -64 53 -19 16 -48 40
-64 56 -16 15 -31 27 -34 27 -5 0 -119 99 -223 195 -75 69 -533 528 -600 601
-154 168 -205 227 -209 237 -2 6 -17 22 -32 35 -16 13 -29 28 -29 34 0 6 -11
19 -25 30 -14 11 -25 26 -25 34 0 8 -4 14 -9 14 -6 0 -31 26 -56 58 -25 31
-54 66 -63 77 -9 11 -45 56 -80 100 -34 44 -70 88 -78 99 -24 28 -183 243
-229 309 -22 32 -59 84 -82 115 -23 31 -43 62 -43 69 0 6 -3 13 -8 15 -11 4
-112 155 -112 167 0 5 -4 11 -8 13 -17 6 -261 401 -410 663 -548 960 -1042
2032 -1495 3245 -102 273 -317 880 -317 895 0 2 -5 16 -11 32 -7 15 -13 38
-15 50 -1 12 -9 35 -16 50 -25 53 -53 45 -304 -81z"/>
</g>
</svg>
